<svg width="40" height="40" viewBox="0 0 40 40" fill="none" xmlns="http://www.w3.org/2000/svg">
<path fill-rule="evenodd" clip-rule="evenodd" d="M36.6668 20C36.6668 29.2047 29.2048 36.6667 20.0002 36.6667C10.7954 36.6667 3.3335 29.2047 3.3335 20C3.3335 10.7953 10.7954 3.33334 20.0002 3.33334C29.2048 3.33334 36.6668 10.7953 36.6668 20ZM14.9495 14.9494C15.4377 14.4613 16.2291 14.4613 16.7173 14.9494L20.0002 18.2322L23.2828 14.9495C23.771 14.4613 24.5625 14.4613 25.0507 14.9495C25.5388 15.4376 25.5388 16.2291 25.0507 16.7172L21.7678 20L25.0507 23.2827C25.5388 23.7708 25.5388 24.5623 25.0507 25.0505C24.5625 25.5387 23.771 25.5387 23.2828 25.0505L20.0002 21.7678L16.7173 25.0505C16.2292 25.5387 15.4377 25.5387 14.9496 25.0505C14.4614 24.5623 14.4614 23.7708 14.9496 23.2828L18.2323 20L14.9495 16.7172C14.4614 16.229 14.4614 15.4376 14.9495 14.9494Z" fill="#252B42"/>
</svg>
