<svg width="49" height="48" viewBox="0 0 49 48" fill="none" xmlns="http://www.w3.org/2000/svg">
<g clipPath="url(#clip0_53_17)">
<g clipPath="url(#clip1_53_17)">
<g clipPath="url(#clip2_53_17)">
<path d="M19.0182 33.75C17.3615 33.75 16.0182 32.4068 16.0182 30.75V27.75C16.0182 26.0932 17.3615 24.75 19.0182 24.75V33.75Z" fill="#6FA4D8"/>
</g>
<g clipPath="url(#clip3_53_17)">
<path d="M31.0182 33.75C32.675 33.75 34.0182 32.4068 34.0182 30.75V27.75C34.0182 26.0932 32.675 24.75 31.0182 24.75V33.75Z" fill="#5C76B2"/>
</g>
<g clipPath="url(#clip4_53_17)">
<path d="M31.0183 11.25H19.0183C17.3615 11.25 16.0182 12.5932 16.0182 14.25V21.75C16.0182 23.4067 17.3615 24.75 19.0183 24.75V33.75C19.0183 36.2355 21.0328 38.25 23.5183 38.25H26.5183C29.0038 38.25 31.0183 36.2355 31.0183 33.75V24.75C32.675 24.75 34.0183 23.4067 34.0183 21.75V14.25C34.0183 12.5932 32.675 11.25 31.0183 11.25Z" fill="#F68820"/>
</g>
<g clipPath="url(#clip5_53_17)">
<path d="M22.0183 11.25H14.5183C13.6895 11.25 13.0183 10.5788 13.0183 9.75V9C13.0183 8.586 12.6823 8.25 12.2682 8.25C11.8542 8.25 11.5182 8.586 11.5182 9V11.25C11.5182 12.9068 12.8615 14.25 14.5183 14.25H20.5183C23.0038 14.25 25.0183 16.2645 25.0183 18.75V14.25C25.0183 12.5932 23.675 11.25 22.0183 11.25Z" fill="#6FA4D8"/>
</g>
<g clipPath="url(#clip6_53_17)">
<path d="M28.0182 11.25H35.5182C36.347 11.25 37.0182 10.5788 37.0182 9.75V9C37.0182 8.586 37.3542 8.25 37.7682 8.25C38.1822 8.25 38.5182 8.586 38.5182 9V11.25C38.5182 12.9068 37.175 14.25 35.5182 14.25H29.5182C27.0327 14.25 25.0182 16.2645 25.0182 18.75V14.25C25.0182 12.5932 26.3615 11.25 28.0182 11.25Z" fill="#5C76B2"/>
</g>
<g clipPath="url(#clip7_53_17)">
<g clipPath="url(#clip8_53_17)">
<path d="M37.0182 44.25V47.25H11.5183V44.25H37.0182Z" fill="#F68820"/>
</g>
<g clipPath="url(#clip9_53_17)">
<path d="M37.0182 38.25V41.25H11.5183V38.25H37.0182Z" fill="#FBD301"/>
</g>
<g clipPath="url(#clip10_53_17)">
<path d="M11.5182 41.25H37.0182V44.25H11.5182V41.25Z" fill="#FBBE18"/>
</g>
<g clipPath="url(#clip11_53_17)">
<path d="M11.5182 38.25L3.18873 42.4148C2.91198 42.5528 2.91198 42.9472 3.18873 43.0852L11.5182 47.25V38.25Z" fill="#DB9E68"/>
</g>
<g clipPath="url(#clip12_53_17)">
<path d="M11.5184 38.25L3.18893 42.4148C3.05093 42.4838 2.98193 42.6165 2.98193 42.75H11.5184V38.25Z" fill="#EEC78E"/>
</g>
<g clipPath="url(#clip13_53_17)">
<path d="M4.01823 42L3.18873 42.4148C2.91198 42.5528 2.91198 42.9472 3.18873 43.0852L4.01823 43.5V42Z" fill="#353744"/>
</g>
<g clipPath="url(#clip14_53_17)">
<path d="M40.0182 38.25V47.25H37.0182V38.25H40.0182Z" fill="#B3B4B6"/>
</g>
<g clipPath="url(#clip15_53_17)">
<path d="M40.0182 38.25V42.75H37.0182V38.25H40.0182Z" fill="#DBDEE3"/>
</g>
<g clipPath="url(#clip16_53_17)">
<path d="M46.0183 45V40.5C46.0183 39.2573 45.011 38.25 43.7683 38.25H40.0182V47.25H43.0183H43.7683C45.011 47.25 46.0183 46.2428 46.0183 45Z" fill="#353744"/>
</g>
<g clipPath="url(#clip17_53_17)">
<path d="M46.0183 42.75V40.5C46.0183 39.2573 45.011 38.25 43.7683 38.25H40.0182V42.75H46.0183Z" fill="#55525B"/>
</g>
</g>
<g clipPath="url(#clip18_53_17)">
<path d="M41.5182 5.25H8.51825C7.6895 5.25 7.01825 4.57875 7.01825 3.75C7.01825 2.92125 7.6895 2.25 8.51825 2.25H41.5182C42.347 2.25 43.0182 2.92125 43.0182 3.75C43.0182 4.57875 42.347 5.25 41.5182 5.25Z" fill="#353744"/>
</g>
<g clipPath="url(#clip19_53_17)">
<path d="M26.5183 3.75C26.5183 2.92125 25.847 2.25 25.0183 2.25H8.51825C7.6895 2.25 7.01825 2.92125 7.01825 3.75C7.01825 4.578 7.6895 5.25 8.51825 5.25H25.0183C25.847 5.25 26.5183 4.578 26.5183 3.75Z" fill="#55525B"/>
</g>
<g clipPath="url(#clip20_53_17)">
<path d="M34.3933 11.25H15.6432C15.2292 11.25 14.8932 10.914 14.8932 10.5V5.25H35.1433V10.5C35.1433 10.914 34.8073 11.25 34.3933 11.25Z" fill="#353744"/>
</g>
<g clipPath="url(#clip21_53_17)">
<path d="M25.0183 11.25H15.6433C15.2292 11.25 14.8932 10.914 14.8932 10.5V8.25H23.5183C24.347 8.25 25.0183 8.92125 25.0183 9.75V11.25Z" fill="#55525B"/>
</g>
<g clipPath="url(#clip22_53_17)">
<path d="M38.5182 2.25H40.0183V11.25H38.5182V2.25Z" fill="#F68820"/>
</g>
<g clipPath="url(#clip23_53_17)">
<path d="M23.5182 2.25H40.0183C40.0183 1.42125 39.347 0.75 38.5183 0.75H25.0183C24.1895 0.75 23.5182 1.42125 23.5182 2.25Z" fill="#FBBE18"/>
</g>
<g clipPath="url(#clip24_53_17)">
<path d="M39.2682 12.75C40.0967 12.75 40.7682 12.0784 40.7682 11.25C40.7682 10.4216 40.0967 9.75 39.2682 9.75C38.4398 9.75 37.7682 10.4216 37.7682 11.25C37.7682 12.0784 38.4398 12.75 39.2682 12.75Z" fill="#FBBE18"/>
</g>
<g clipPath="url(#clip25_53_17)">
<path d="M37.7682 11.25H40.7682V12.75H37.7682V11.25Z" fill="#B3B4B6"/>
</g>
<g clipPath="url(#clip26_53_17)">
<path d="M37.7682 11.25H39.2683V12.75H37.7682V11.25Z" fill="#DBDEE3"/>
</g>
<g clipPath="url(#clip27_53_17)">
<path d="M39.2683 18.75H37.7683C37.3543 18.75 37.0182 18.414 37.0182 18V13.5C37.0182 13.086 37.3543 12.75 37.7683 12.75H39.2683V18.75Z" fill="#FBBE18"/>
</g>
<g clipPath="url(#clip28_53_17)">
<path d="M39.2682 18.75H40.7682C41.1822 18.75 41.5182 18.414 41.5182 18V13.5C41.5182 13.086 41.1822 12.75 40.7682 12.75H39.2682V18.75Z" fill="#F68820"/>
</g>
<g clipPath="url(#clip29_53_17)">
<path d="M38.5182 18.75V13.875C38.5182 13.668 38.3502 13.5 38.1432 13.5C37.9362 13.5 37.7682 13.668 37.7682 13.875V18.75H38.5182Z" fill="#F68820"/>
</g>
<g clipPath="url(#clip30_53_17)">
<path d="M40.7682 18.75V16.125C40.7682 15.918 40.6002 15.75 40.3932 15.75C40.1862 15.75 40.0182 15.918 40.0182 16.125V18.75H40.7682Z" fill="#FBBE18"/>
</g>
<g clipPath="url(#clip31_53_17)">
<path d="M20.5183 23.25C23.0035 23.25 25.0183 21.2353 25.0183 18.75C25.0183 16.2647 23.0035 14.25 20.5183 14.25C18.033 14.25 16.0182 16.2647 16.0182 18.75C16.0182 21.2353 18.033 23.25 20.5183 23.25Z" fill="#DBDEE3"/>
</g>
<g clipPath="url(#clip32_53_17)">
<path d="M20.5183 23.25C23.0035 23.25 25.0183 21.2353 25.0183 18.75C25.0183 16.2647 23.0035 14.25 20.5183 14.25C18.033 14.25 16.0182 16.2647 16.0182 18.75C16.0182 21.2353 18.033 23.25 20.5183 23.25Z" fill="#DBDEE3"/>
</g>
<g clipPath="url(#clip33_53_17)">
<path d="M20.5182 20.25C21.3467 20.25 22.0182 19.5784 22.0182 18.75C22.0182 17.9216 21.3467 17.25 20.5182 17.25C19.6898 17.25 19.0182 17.9216 19.0182 18.75C19.0182 19.5784 19.6898 20.25 20.5182 20.25Z" fill="#55525B"/>
</g>
<g clipPath="url(#clip34_53_17)">
<path d="M29.5182 23.25C32.0035 23.25 34.0182 21.2353 34.0182 18.75C34.0182 16.2647 32.0035 14.25 29.5182 14.25C27.033 14.25 25.0182 16.2647 25.0182 18.75C25.0182 21.2353 27.033 23.25 29.5182 23.25Z" fill="#DBDEE3"/>
</g>
<g clipPath="url(#clip35_53_17)">
<path d="M29.5182 20.25C30.3467 20.25 31.0182 19.5784 31.0182 18.75C31.0182 17.9216 30.3467 17.25 29.5182 17.25C28.6898 17.25 28.0182 17.9216 28.0182 18.75C28.0182 19.5784 28.6898 20.25 29.5182 20.25Z" fill="#55525B"/>
</g>
<g clipPath="url(#clip36_53_17)">
<path d="M25.0183 18.75C25.9483 18.75 26.6113 19.6523 26.3338 20.5395L25.7338 22.4588C25.5148 23.1608 24.521 23.1608 24.302 22.4588L23.702 20.5395C23.4253 19.6523 24.0883 18.75 25.0183 18.75Z" fill="#55525B"/>
</g>
<g clipPath="url(#clip37_53_17)">
<path d="M22.7682 26.25C21.9395 26.25 21.2682 25.5788 21.2682 24.75H24.2682C24.2682 25.5788 23.597 26.25 22.7682 26.25Z" fill="#FBBE18"/>
</g>
<g clipPath="url(#clip38_53_17)">
<path d="M27.2682 26.25C26.4395 26.25 25.7682 25.5788 25.7682 24.75H28.7682C28.7682 25.5788 28.097 26.25 27.2682 26.25Z" fill="#FBBE18"/>
</g>
<g clipPath="url(#clip39_53_17)">
<path d="M22.7682 32.25C21.9395 32.25 21.2682 31.5788 21.2682 30.75H24.2682C24.2682 31.5788 23.597 32.25 22.7682 32.25Z" fill="#FBBE18"/>
</g>
<g clipPath="url(#clip40_53_17)">
<path d="M27.2682 32.25C26.4395 32.25 25.7682 31.5788 25.7682 30.75H28.7682C28.7682 31.5788 28.097 32.25 27.2682 32.25Z" fill="#FBBE18"/>
</g>
<g clipPath="url(#clip41_53_17)">
<path d="M25.0183 29.25C24.1895 29.25 23.5182 28.5788 23.5182 27.75H26.5183C26.5183 28.5788 25.847 29.25 25.0183 29.25Z" fill="#FBBE18"/>
</g>
<g clipPath="url(#clip42_53_17)">
<path d="M25.0183 35.25C24.1895 35.25 23.5182 34.5788 23.5182 33.75H26.5183C26.5183 34.5788 25.847 35.25 25.0183 35.25Z" fill="#FBBE18"/>
</g>
<g clipPath="url(#clip43_53_17)">
<path d="M20.1432 39.75C20.5572 39.75 20.8932 39.414 20.8932 39V37.5C20.8932 37.086 20.5572 36.75 20.1432 36.75C19.7292 36.75 19.3932 37.086 19.3932 37.5V39C19.3932 39.414 19.7292 39.75 20.1432 39.75Z" fill="#6FA4D8"/>
</g>
<g clipPath="url(#clip44_53_17)">
<path d="M21.6432 39.75C22.0572 39.75 22.3932 39.414 22.3932 39V37.5C22.3932 37.086 22.0572 36.75 21.6432 36.75C21.2292 36.75 20.8932 37.086 20.8932 37.5V39C20.8932 39.414 21.2292 39.75 21.6432 39.75Z" fill="#6FA4D8"/>
</g>
<g clipPath="url(#clip45_53_17)">
<path d="M23.1432 39.75C23.5572 39.75 23.8932 39.414 23.8932 39V37.5C23.8932 37.086 23.5572 36.75 23.1432 36.75C22.7292 36.75 22.3932 37.086 22.3932 37.5V39C22.3932 39.414 22.7292 39.75 23.1432 39.75Z" fill="#6FA4D8"/>
</g>
<g clipPath="url(#clip46_53_17)">
<path d="M26.8932 39.75C27.3072 39.75 27.6432 39.414 27.6432 39V37.5C27.6432 37.086 27.3072 36.75 26.8932 36.75C26.4792 36.75 26.1432 37.086 26.1432 37.5V39C26.1432 39.414 26.4792 39.75 26.8932 39.75Z" fill="#6FA4D8"/>
</g>
<g clipPath="url(#clip47_53_17)">
<path d="M28.3932 39.75C28.8072 39.75 29.1432 39.414 29.1432 39V37.5C29.1432 37.086 28.8072 36.75 28.3932 36.75C27.9792 36.75 27.6432 37.086 27.6432 37.5V39C27.6432 39.414 27.9792 39.75 28.3932 39.75Z" fill="#6FA4D8"/>
</g>
<g clipPath="url(#clip48_53_17)">
<path d="M29.8932 39.75C30.3072 39.75 30.6432 39.414 30.6432 39V37.5C30.6432 37.086 30.3072 36.75 29.8932 36.75C29.4792 36.75 29.1432 37.086 29.1432 37.5V39C29.1432 39.414 29.4792 39.75 29.8932 39.75Z" fill="#6FA4D8"/>
</g>
</g>
</g>
<defs>
<clipPath id="clip0_53_17">
<rect width="48" height="48" fill="white" transform="translate(0.5)"/>
</clipPath>
<clipPath id="clip1_53_17">
<rect width="43.0371" height="46.5" fill="white" transform="translate(2.98117 0.75)"/>
</clipPath>
<clipPath id="clip2_53_17">
<rect width="3" height="9" fill="white" transform="translate(16.0182 24.75)"/>
</clipPath>
<clipPath id="clip3_53_17">
<rect width="3" height="9" fill="white" transform="translate(31.0182 24.75)"/>
</clipPath>
<clipPath id="clip4_53_17">
<rect width="18" height="27" fill="white" transform="translate(16.0182 11.25)"/>
</clipPath>
<clipPath id="clip5_53_17">
<rect width="13.5" height="10.5" fill="white" transform="translate(11.5182 8.25)"/>
</clipPath>
<clipPath id="clip6_53_17">
<rect width="13.5" height="10.5" fill="white" transform="translate(25.0182 8.25)"/>
</clipPath>
<clipPath id="clip7_53_17">
<rect width="43.0371" height="9.00001" fill="white" transform="translate(2.98117 38.25)"/>
</clipPath>
<clipPath id="clip8_53_17">
<rect width="25.5" height="3.00001" fill="white" transform="translate(11.5182 44.25)"/>
</clipPath>
<clipPath id="clip9_53_17">
<rect width="25.5" height="3.00001" fill="white" transform="translate(11.5182 38.25)"/>
</clipPath>
<clipPath id="clip10_53_17">
<rect width="25.5" height="3" fill="white" transform="translate(11.5182 41.25)"/>
</clipPath>
<clipPath id="clip11_53_17">
<rect width="8.53706" height="9" fill="white" transform="translate(2.98117 38.25)"/>
</clipPath>
<clipPath id="clip12_53_17">
<rect width="8.5365" height="4.5" fill="white" transform="translate(2.98193 38.25)"/>
</clipPath>
<clipPath id="clip13_53_17">
<rect width="1.03706" height="1.5" fill="white" transform="translate(2.98117 42)"/>
</clipPath>
<clipPath id="clip14_53_17">
<rect width="3" height="9" fill="white" transform="translate(37.0182 38.25)"/>
</clipPath>
<clipPath id="clip15_53_17">
<rect width="3" height="4.5" fill="white" transform="translate(37.0182 38.25)"/>
</clipPath>
<clipPath id="clip16_53_17">
<rect width="6" height="9" fill="white" transform="translate(40.0182 38.25)"/>
</clipPath>
<clipPath id="clip17_53_17">
<rect width="6" height="4.5" fill="white" transform="translate(40.0182 38.25)"/>
</clipPath>
<clipPath id="clip18_53_17">
<rect width="36" height="3" fill="white" transform="translate(7.01825 2.25)"/>
</clipPath>
<clipPath id="clip19_53_17">
<rect width="19.5" height="3" fill="white" transform="translate(7.01825 2.25)"/>
</clipPath>
<clipPath id="clip20_53_17">
<rect width="20.25" height="6" fill="white" transform="translate(14.8932 5.25)"/>
</clipPath>
<clipPath id="clip21_53_17">
<rect width="10.125" height="3" fill="white" transform="translate(14.8932 8.25)"/>
</clipPath>
<clipPath id="clip22_53_17">
<rect width="1.5" height="9" fill="white" transform="translate(38.5182 2.25)"/>
</clipPath>
<clipPath id="clip23_53_17">
<rect width="16.5" height="1.5" fill="white" transform="translate(23.5182 0.75)"/>
</clipPath>
<clipPath id="clip24_53_17">
<rect width="3" height="3" fill="white" transform="translate(37.7682 9.75)"/>
</clipPath>
<clipPath id="clip25_53_17">
<rect width="3" height="1.5" fill="white" transform="translate(37.7682 11.25)"/>
</clipPath>
<clipPath id="clip26_53_17">
<rect width="1.5" height="1.5" fill="white" transform="translate(37.7682 11.25)"/>
</clipPath>
<clipPath id="clip27_53_17">
<rect width="2.25" height="6" fill="white" transform="translate(37.0182 12.75)"/>
</clipPath>
<clipPath id="clip28_53_17">
<rect width="2.25" height="6" fill="white" transform="translate(39.2682 12.75)"/>
</clipPath>
<clipPath id="clip29_53_17">
<rect width="0.75" height="5.25" fill="white" transform="translate(37.7682 13.5)"/>
</clipPath>
<clipPath id="clip30_53_17">
<rect width="0.749996" height="3" fill="white" transform="translate(40.0182 15.75)"/>
</clipPath>
<clipPath id="clip31_53_17">
<rect width="9.00001" height="9" fill="white" transform="translate(16.0182 14.25)"/>
</clipPath>
<clipPath id="clip32_53_17">
<rect width="9.00001" height="9" fill="white" transform="translate(16.0182 14.25)"/>
</clipPath>
<clipPath id="clip33_53_17">
<rect width="3" height="3" fill="white" transform="translate(19.0182 17.25)"/>
</clipPath>
<clipPath id="clip34_53_17">
<rect width="9" height="9" fill="white" transform="translate(25.0182 14.25)"/>
</clipPath>
<clipPath id="clip35_53_17">
<rect width="3" height="3" fill="white" transform="translate(28.0182 17.25)"/>
</clipPath>
<clipPath id="clip36_53_17">
<rect width="2.75898" height="4.23525" fill="white" transform="translate(23.6386 18.75)"/>
</clipPath>
<clipPath id="clip37_53_17">
<rect width="3" height="1.5" fill="white" transform="translate(21.2682 24.75)"/>
</clipPath>
<clipPath id="clip38_53_17">
<rect width="3" height="1.5" fill="white" transform="translate(25.7682 24.75)"/>
</clipPath>
<clipPath id="clip39_53_17">
<rect width="3" height="1.5" fill="white" transform="translate(21.2682 30.75)"/>
</clipPath>
<clipPath id="clip40_53_17">
<rect width="3" height="1.5" fill="white" transform="translate(25.7682 30.75)"/>
</clipPath>
<clipPath id="clip41_53_17">
<rect width="3.00001" height="1.5" fill="white" transform="translate(23.5182 27.75)"/>
</clipPath>
<clipPath id="clip42_53_17">
<rect width="3.00001" height="1.5" fill="white" transform="translate(23.5182 33.75)"/>
</clipPath>
<clipPath id="clip43_53_17">
<rect width="1.5" height="3" fill="white" transform="translate(19.3932 36.75)"/>
</clipPath>
<clipPath id="clip44_53_17">
<rect width="1.5" height="3" fill="white" transform="translate(20.8932 36.75)"/>
</clipPath>
<clipPath id="clip45_53_17">
<rect width="1.5" height="3" fill="white" transform="translate(22.3932 36.75)"/>
</clipPath>
<clipPath id="clip46_53_17">
<rect width="1.5" height="3" fill="white" transform="translate(26.1432 36.75)"/>
</clipPath>
<clipPath id="clip47_53_17">
<rect width="1.5" height="3" fill="white" transform="translate(27.6432 36.75)"/>
</clipPath>
<clipPath id="clip48_53_17">
<rect width="1.5" height="3" fill="white" transform="translate(29.1432 36.75)"/>
</clipPath>
</defs>
</svg>
