<svg width="16" height="16" viewBox="0 0 16 16" fill="none" xmlns="http://www.w3.org/2000/svg">
<path d="M5.99992 1.33331C4.25325 1.33331 2.83325 2.75331 2.83325 4.49998C2.83325 6.21331 4.17325 7.59998 5.91992 7.65998C5.97325 7.65331 6.02659 7.65331 6.06659 7.65998C6.07992 7.65998 6.08658 7.65998 6.09992 7.65998C6.10658 7.65998 6.10659 7.65998 6.11325 7.65998C7.81992 7.59998 9.15992 6.21331 9.16658 4.49998C9.16658 2.75331 7.74658 1.33331 5.99992 1.33331Z" fill="white"/>
<path d="M9.38735 9.43262C7.52735 8.19262 4.49404 8.19262 2.62071 9.43262C1.77404 9.99929 1.30737 10.766 1.30737 11.586C1.30737 12.406 1.77404 13.166 2.61404 13.726C3.54737 14.3526 4.77404 14.666 6.00071 14.666C7.22735 14.666 8.45401 14.3526 9.38735 13.726C10.2273 13.1593 10.694 12.3993 10.694 11.5726C10.6873 10.7526 10.2273 9.99262 9.38735 9.43262Z" fill="white"/>
<path d="M13.3263 4.8921C13.4329 6.18543 12.5129 7.31873 11.2396 7.47206C11.2329 7.47206 11.2329 7.47206 11.2262 7.47206H11.2063C11.1663 7.47206 11.1263 7.47206 11.0929 7.4854C10.4463 7.51873 9.85292 7.31206 9.40625 6.93206C10.0929 6.31876 10.4862 5.39876 10.4062 4.39876C10.3596 3.85876 10.1729 3.36543 9.89292 2.94543C10.1463 2.81876 10.4396 2.73876 10.7396 2.7121C12.0462 2.59876 13.2129 3.5721 13.3263 4.8921Z" fill="white"/>
<path d="M14.6588 11.0602C14.6054 11.7069 14.1921 12.2669 13.4988 12.6469C12.8321 13.0136 11.9921 13.1869 11.1588 13.1669C11.6388 12.7336 11.9188 12.1936 11.9721 11.6202C12.0388 10.7936 11.6454 10.0002 10.8588 9.36691C10.4121 9.01358 9.89211 8.73358 9.32544 8.52691C10.7988 8.10024 12.6521 8.38691 13.7921 9.30691C14.4054 9.80024 14.7188 10.4202 14.6588 11.0602Z" fill="white"/>
</svg>
